<svg width="15" height="16" viewBox="0 0 15 16" fill="none" xmlns="http://www.w3.org/2000/svg">
<path d="M8.49638 0.0198206C12.0827 0.0198206 15 3.13165 15 6.95702C15 10.7824 12.0827 13.8942 8.49638 13.8942C7.40005 13.8942 6.32231 13.6167 5.4118 13.0816C5.33887 13.1752 5.25801 13.2614 5.17024 13.3392L3.31206 15.3213C3.14048 15.5272 2.93126 15.6936 2.69722 15.8101C2.46319 15.9267 2.20929 15.991 1.95111 15.9991C1.69293 16.0072 1.43592 15.959 1.19587 15.8573C0.955811 15.7556 0.737769 15.6027 0.555131 15.4079C0.372493 15.213 0.229111 14.9805 0.133789 14.7244C0.0384684 14.4683 -0.00677967 14.1942 0.00082016 13.9188C0.00841999 13.6434 0.0687094 13.3726 0.177986 13.123C0.287264 12.8733 0.443222 12.6502 0.636288 12.4671L2.49446 10.4851C2.58498 10.3885 2.68461 10.3021 2.79177 10.2274C2.29006 9.2562 1.97418 8.12643 1.97418 6.9372C1.97418 3.11183 4.89151 0 8.4778 0L8.49638 0.0198206ZM8.49638 2.00188C5.91351 2.00188 3.85093 4.20196 3.85093 6.95702C3.85093 8.26517 4.2969 9.47423 5.07733 10.3662C5.09591 10.386 5.1145 10.4058 5.13308 10.4256C5.22085 10.5034 5.30171 10.5897 5.37464 10.6833C6.19224 11.4761 7.30715 11.932 8.51496 11.932C11.0978 11.932 13.1604 9.7319 13.1604 6.97684C13.1604 4.22178 11.0978 2.0217 8.51496 2.0217L8.49638 2.00188Z" fill="#ABABAB"/>
</svg>
